<?xml version="1.0" encoding="UTF-8" standalone="no"?>
<svg
   class="svg-icon"
   style="overflow:hidden;fill:currentColor"
   viewBox="0 0 280 280"
   version="1.1"
   id="svg1"
   sodipodi:docname="favorites-placeholder.svg"
   width="280"
   height="280"
   inkscape:version="1.4 (86a8ad7, 2024-10-11)"
   xmlns:inkscape="http://www.inkscape.org/namespaces/inkscape"
   xmlns:sodipodi="http://sodipodi.sourceforge.net/DTD/sodipodi-0.dtd"
   xmlns="http://www.w3.org/2000/svg"
   xmlns:svg="http://www.w3.org/2000/svg">
  <defs
     id="defs1" />
  <sodipodi:namedview
     id="namedview1"
     pagecolor="#ffffff"
     bordercolor="#000000"
     borderopacity="0.25"
     inkscape:showpageshadow="2"
     inkscape:pageopacity="0.0"
     inkscape:pagecheckerboard="0"
     inkscape:deskcolor="#d1d1d1"
     inkscape:zoom="0.79492188"
     inkscape:cx="511.37101"
     inkscape:cy="512"
     inkscape:window-width="1920"
     inkscape:window-height="1009"
     inkscape:window-x="-8"
     inkscape:window-y="-8"
     inkscape:window-maximized="1"
     inkscape:current-layer="svg1" />
  <path
     d="m 73.711688,269.32957 c -6.774295,0 -13.343309,-2.05282 -19.091197,-6.36373 C 44.561689,255.5757 39.429647,243.2588 41.687745,230.9419 l 8.621831,-50.4993 c 0.615845,-3.90035 -0.615845,-8.00598 -3.489789,-10.67465 L 9.8690835,133.84366 C 0.83668946,125.01655 -2.2425358,112.28908 1.6578162,100.38274 5.5581681,88.476407 15.616971,79.854576 27.933872,78.212322 l 50.704577,-7.39014 c 3.900352,-0.615845 7.39014,-3.079226 9.237675,-6.569014 L 110.66239,18.27007 C 116.205,6.9795773 127.49549,0 140.01767,0 c 12.52219,0 23.81268,6.9795773 29.35528,18.27007 l 22.78627,45.983098 c 1.84754,3.489788 5.13204,6.15845 9.23768,6.569014 l 50.70457,7.39014 c 12.3169,1.847535 22.58099,10.264085 26.27606,22.170418 3.90035,11.90634 0.61584,24.83909 -8.21127,33.46092 l -36.74542,35.92429 c -2.87394,2.87395 -4.10563,6.7743 -3.48979,10.67465 l 8.62183,50.4993 c 2.05282,12.3169 -2.87394,24.6338 -12.93274,32.02394 -10.05881,7.39014 -23.40212,8.41655 -34.48733,2.46338 l -45.36725,-23.81268 c -3.48979,-1.84753 -7.8007,-1.84753 -11.29049,0 l -45.367255,23.81268 c -5.132043,2.66866 -10.264085,3.90035 -15.396127,3.90035 z M 140.01767,20.528169 c -4.72148,0 -8.82711,2.46338 -10.87993,6.774295 L 106.35148,73.285562 C 101.63,82.933801 92.392322,89.708097 81.717674,91.145069 l -50.704577,7.39014 c -4.721479,0.615845 -8.416549,3.695071 -9.853521,8.211271 -1.436972,4.51619 -0.410563,9.23767 3.079226,12.52218 l 36.745422,35.92429 c 7.800704,7.59543 11.290492,18.27007 9.442957,28.94472 l -8.827112,50.4993 c -0.821127,4.72148 1.026408,9.03239 4.92676,11.90633 3.900352,2.87395 8.621831,3.07923 12.727465,1.02641 l 45.367256,-23.81267 c 9.44295,-4.92676 20.93873,-4.92676 30.38169,0 l 45.36725,23.81267 c 4.10563,2.2581 9.03239,1.84754 12.72746,-0.82112 3.90035,-2.87395 5.54261,-7.18486 4.92676,-11.90634 l -8.62183,-50.4993 c -1.84753,-10.67464 1.64226,-21.34929 9.44296,-28.94471 l 36.74542,-35.9243 c 3.28451,-3.28451 4.5162,-8.00598 3.07923,-12.52218 -1.43697,-4.5162 -5.13205,-7.595424 -9.85352,-8.211269 L 198.11239,91.35035 C 187.43774,89.708097 178.20007,83.139083 173.47859,73.490844 L 150.8976,27.302464 c -2.05281,-4.310915 -6.15845,-6.774295 -10.87993,-6.774295 z"
     fill="#515151"
     id="path1"
     style="stroke-width:0.320753;fill:#e6e6e6" />
</svg>
