<?xml version="1.0" encoding="UTF-8" standalone="no"?>
<!-- Uploaded to: SVG Repo, www.svgrepo.com, Generator: SVG Repo Mixer Tools -->

<svg
   fill="#000000"
   version="1.1"
   id="Capa_1"
   width="250"
   height="250"
   viewBox="0 0 157.30594 157.30594"
   xml:space="preserve"
   sodipodi:docname="history-placeholder.svg"
   inkscape:version="1.4 (86a8ad7, 2024-10-11)"
   xmlns:inkscape="http://www.inkscape.org/namespaces/inkscape"
   xmlns:sodipodi="http://sodipodi.sourceforge.net/DTD/sodipodi-0.dtd"
   xmlns="http://www.w3.org/2000/svg"
   xmlns:svg="http://www.w3.org/2000/svg"><defs
   id="defs1" /><sodipodi:namedview
   id="namedview1"
   pagecolor="#ffffff"
   bordercolor="#000000"
   borderopacity="0.25"
   inkscape:showpageshadow="2"
   inkscape:pageopacity="0.0"
   inkscape:pagecheckerboard="0"
   inkscape:deskcolor="#d1d1d1"
   inkscape:zoom="2.035"
   inkscape:cx="159.45946"
   inkscape:cy="118.42752"
   inkscape:window-width="1920"
   inkscape:window-height="1009"
   inkscape:window-x="-8"
   inkscape:window-y="-8"
   inkscape:window-maximized="1"
   inkscape:current-layer="Capa_1" />
<g
   id="g1"
   transform="matrix(0.3125,0,0,0.3125,-0.54766194,0)"
   style="fill:#e6e6e6">
	<path
   d="m 458.091,128.116 v 326.842 c 0,26.698 -21.723,48.421 -48.422,48.421 h -220.92 c -26.699,0 -48.421,-21.723 -48.421,-48.421 V 242.439 c 6.907,1.149 13.953,1.894 21.184,1.894 5.128,0 10.161,-0.381 15.132,-0.969 v 211.594 c 0,6.673 5.429,12.104 12.105,12.104 h 220.92 c 6.674,0 12.105,-5.432 12.105,-12.104 V 128.116 c 0,-6.676 -5.432,-12.105 -12.105,-12.105 H 289.835 c 0,-12.625 -1.897,-24.793 -5.297,-36.315 h 125.131 c 26.699,-0.001 48.422,21.721 48.422,48.42 z M 159.49,228.401 C 96.517,228.401 45.288,177.172 45.288,114.202 45.289,51.229 96.517,0 159.49,0 c 62.971,0 114.202,51.229 114.202,114.202 0,62.97 -51.231,114.199 -114.202,114.199 z m 0,-24.211 c 49.618,0 89.989,-40.364 89.989,-89.988 0,-49.627 -40.365,-89.991 -89.989,-89.991 -49.626,0 -89.991,40.364 -89.991,89.991 0,49.624 40.371,89.988 89.991,89.988 z m 68.491,-77.882 c 6.682,0 12.105,-5.423 12.105,-12.105 0,-6.682 -5.423,-12.105 -12.105,-12.105 h -56.386 v -47.52 c 0,-6.682 -5.423,-12.105 -12.105,-12.105 -6.682,0 -12.105,5.423 -12.105,12.105 v 59.625 c 0,6.682 5.423,12.105 12.105,12.105 z m 139.716,98.148 h -131.14 c -6.682,0 -12.105,5.423 -12.105,12.105 0,6.683 5.423,12.105 12.105,12.105 h 131.14 c 6.685,0 12.105,-5.423 12.105,-12.105 10e-4,-6.682 -5.42,-12.105 -12.105,-12.105 z m 0.213,73.429 H 236.77 c -6.682,0 -12.105,5.42 -12.105,12.105 0,6.685 5.423,12.105 12.105,12.105 h 131.14 c 6.685,0 12.104,-5.42 12.104,-12.105 0,-6.685 -5.413,-12.105 -12.104,-12.105 z m 0,76.468 H 236.77 c -6.682,0 -12.105,5.426 -12.105,12.105 0,6.685 5.423,12.104 12.105,12.104 h 131.14 c 6.685,0 12.104,-5.42 12.104,-12.104 10e-4,-6.68 -5.413,-12.105 -12.104,-12.105 z"
   id="path1"
   style="fill:#e6e6e6" />
</g>
</svg>
