<?xml version="1.0" encoding="UTF-8" standalone="no"?>
<svg
   height="198"
   width="270"
   version="1.1"
   id="svg1"
   sodipodi:docname="placeholder.svg"
   inkscape:version="1.4 (86a8ad7, 2024-10-11)"
   xmlns:inkscape="http://www.inkscape.org/namespaces/inkscape"
   xmlns:sodipodi="http://sodipodi.sourceforge.net/DTD/sodipodi-0.dtd"
   xmlns="http://www.w3.org/2000/svg"
   xmlns:svg="http://www.w3.org/2000/svg">
  <defs
     id="defs1" />
  <sodipodi:namedview
     id="namedview1"
     pagecolor="#ffffff"
     bordercolor="#000000"
     borderopacity="0.25"
     inkscape:showpageshadow="2"
     inkscape:pageopacity="0.0"
     inkscape:pagecheckerboard="0"
     inkscape:deskcolor="#d1d1d1"
     inkscape:zoom="1.4389623"
     inkscape:cx="82.351011"
     inkscape:cy="181.38071"
     inkscape:window-width="1920"
     inkscape:window-height="1009"
     inkscape:window-x="-8"
     inkscape:window-y="-8"
     inkscape:window-maximized="1"
     inkscape:current-layer="svg1" />
  <path
     d="m 90.3663,0 v 32.445939 h 8.4375 V 0 Z M 53.0712,9.2570643 45.9,13.757863 l 17.042401,27.52115 7.173898,-4.503511 z m 83.53259,0.8507007 -12.7413,23.186148 c -8.06219,1.801942 -15.59519,5.068825 -22.27499,9.512539 -2.2869,-0.32342 -4.6305,-0.510956 -7.0038,-0.510956 -28.8225,0 -52.1424,23.631878 -52.1424,52.745701 0,5.291693 0.8235,10.395863 2.2761,15.201043 -2.640599,3.35657 -4.792499,7.18062 -6.242401,11.29819 L 36.617401,118.65134 9.45,135.89351 l 0.92826,1.52744 C 3.96144,143.75631 0,152.53501 0,162.22423 c 0,9.5669 4.3996501,17.50036 11.05326,21.99573 6.653341,4.49534 14.95827,6.03094 23.539141,6.03094 h 55.2663 8.437499 24.63751 48.17879 44.2125 c 30.105,0 54.675,-24.72718 54.675,-55.03686 0,-30.30969 -24.56729,-54.95262 -54.675,-54.95262 -4.3389,0 -8.4348,0.717522 -12.4038,1.698675 -7.73819,-28.82845 -33.50971,-50.280602 -64.5462,-50.280602 -1.3473,0 -2.6379,0.09242 -3.9663,0.171228 L 144.02879,14.26882 Z M 16.3674,41.023531 l -4.13451,7.474143 28.0989,15.712005 4.05,-7.474143 -28.0152,-15.712005 z m 122.0076,3.652817 c 27.2376,0 49.4613,20.049727 53.5788,46.288056 l 1.2636,7.898121 7.425,-2.802123 c 4.6818,-1.788363 9.5526,-2.88909 14.6826,-2.88909 23.16601,0 41.84999,18.726108 41.84999,42.042728 0,23.3166 -18.6867,42.12698 -41.84999,42.12698 H 171.1125 122.93371 34.592401 c -6.9552,0 -12.843901,-1.44048 -16.367402,-3.82133 -3.523499,-2.38084 -5.399998,-5.22373 -5.399998,-11.29546 0,-12.12986 9.70542,-21.82993 21.7674,-21.82993 1.997999,0 4.012199,0.34789 6.245099,1.0192 l 8.270101,2.54937 v -8.74883 c 0,-0.78275 0.0189,-1.24479 0,-1.35893 0.359101,-14.41016 11.912399,-25.81978 26.324997,-25.81978 -0.210588,0 0.3186,0.0707 1.771206,0.16853 l 7.171198,0.51095 -0.337503,-7.21865 c -0.07829,-1.769338 -0.170102,-2.367271 -0.170102,-1.954162 0,-30.380345 24.305403,-54.865637 54.507603,-54.865637 z M 0,88.330782 v 8.493351 h 32.146201 v -8.493351 z"
     id="path1"
     style="fill:#e6e6e6;stroke-width:2.70893" />
</svg>
