<?xml version="1.0" encoding="UTF-8" standalone="no"?>
<svg
   height="220"
   width="300"
   version="1.1"
   id="svg1"
   sodipodi:docname="placeholder.svg"
   inkscape:version="1.4 (86a8ad7, 2024-10-11)"
   xmlns:inkscape="http://www.inkscape.org/namespaces/inkscape"
   xmlns:sodipodi="http://sodipodi.sourceforge.net/DTD/sodipodi-0.dtd"
   xmlns="http://www.w3.org/2000/svg"
   xmlns:svg="http://www.w3.org/2000/svg">
  <defs
     id="defs1" />
  <sodipodi:namedview
     id="namedview1"
     pagecolor="#ffffff"
     bordercolor="#000000"
     borderopacity="0.25"
     inkscape:showpageshadow="2"
     inkscape:pageopacity="0.0"
     inkscape:pagecheckerboard="0"
     inkscape:deskcolor="#d1d1d1"
     inkscape:zoom="1.4389623"
     inkscape:cx="83.045956"
     inkscape:cy="181.38071"
     inkscape:window-width="1920"
     inkscape:window-height="1009"
     inkscape:window-x="-8"
     inkscape:window-y="-8"
     inkscape:window-maximized="1"
     inkscape:current-layer="svg1" />
  <path
     d="m 100.407,0 v 36.051043 h 9.375 V 0 Z M 58.968,10.285627 51,15.286514 69.936001,45.86557 77.906999,40.861669 Z m 92.81399,0.945223 -14.157,25.762387 C 128.667,38.995395 120.297,42.625264 112.875,47.562725 c -2.541,-0.359356 -5.145,-0.567729 -7.782,-0.567729 -32.025,0 -57.936,26.257642 -57.936,58.606334 0,5.87966 0.915,11.55096 2.529,16.89005 -2.933999,3.72952 -5.324999,7.97846 -6.936001,12.55354 L 40.686001,131.83482 10.5,150.99279 l 1.0314,1.69715 C 4.4016,159.72923 0,169.48335 0,180.24914 c 0,10.62989 4.8885001,19.44485 12.2814,24.4397 7.392601,4.99483 16.6203,6.70105 26.154601,6.70105 h 61.407 9.374999 27.37501 53.53199 49.125 c 33.45,0 60.75,-27.47464 60.75,-61.15207 0,-33.67743 -27.29699,-61.058464 -60.75,-61.058464 -4.821,0 -9.372,0.797246 -13.782,1.887416 -8.59799,-32.031611 -37.23301,-55.867335 -71.718,-55.867335 -1.497,0 -2.931,0.102687 -4.407,0.190253 L 160.03199,15.854244 Z M 18.186,45.581701 l -4.5939,8.304603 31.221,17.457784 4.5,-8.304603 -31.128,-17.457784 z m 135.564,4.058686 c 30.264,0 54.957,22.277474 59.532,51.431173 l 1.404,8.77569 8.25,-3.11347 c 5.202,-1.98707 10.614,-3.2101 16.314,-3.2101 25.74001,0 46.49999,20.80679 46.49999,46.71414 0,25.90734 -20.763,46.80776 -46.49999,46.80776 H 190.125 136.59301 38.436001 c -7.728,0 -14.271001,-1.60053 -18.186002,-4.24592 -3.914999,-2.64538 -5.999998,-5.80415 -5.999998,-12.55052 0,-13.47762 10.7838,-24.25547 24.186,-24.25547 2.219999,0 4.457999,0.38654 6.938999,1.13244 l 9.189001,2.83263 v -9.72092 c 0,-0.86972 0.021,-1.3831 0,-1.50992 0.399001,-16.01129 13.235999,-28.68864 29.249997,-28.68864 -0.233987,0 0.354,0.0785 1.968006,0.18725 l 7.967998,0.56772 -0.375003,-8.02072 c -0.08699,-1.96593 -0.189002,-2.6303 -0.189002,-2.17129 0,-33.755939 27.006003,-60.961819 60.564003,-60.961819 z M 0,98.145313 v 9.437057 h 35.718001 v -9.437057 z"
     id="path1"
     style="fill:#e6e6e6;stroke-width:3.00992" />
</svg>
